  0
SECTION
  2
BLOCKS
  0
ENDSEC
  0
SECTION
  2
ENTITIES
  0
LINE
  8
0
 10
-16.5
 20
10.0399
 11
-8.42528
 21
10.0399
  0
LINE
  8
0
 10
-8.42528
 20
10.0399
 11
-7.62119
 21
10.0662
  0
LINE
  8
0
 10
-7.62119
 20
10.0662
 11
-6.82054
 21
10.1451
  0
LINE
  8
0
 10
-6.82054
 20
10.1451
 11
-6.02676
 21
10.2762
  0
LINE
  8
0
 10
-6.02676
 20
10.2762
 11
-5.24327
 21
10.4588
  0
LINE
  8
0
 10
-5.24327
 20
10.4588
 11
-4.47339
 21
10.6924
  0
LINE
  8
0
 10
-4.47339
 20
10.6924
 11
-3.72044
 21
10.9758
  0
LINE
  8
0
 10
-3.72044
 20
10.9758
 11
-2.98764
 21
11.3078
  0
LINE
  8
0
 10
-2.98764
 20
11.3078
 11
-2.27811
 21
11.687
  0
LINE
  8
0
 10
-2.27811
 20
11.687
 11
-1.59491
 21
12.1119
  0
LINE
  8
0
 10
-1.59491
 20
12.1119
 11
-0.940964
 21
12.5805
  0
LINE
  8
0
 10
-0.940964
 20
12.5805
 11
-0.319061
 21
13.0909
  0
LINE
  8
0
 10
-0.319061
 20
13.0909
 11
0.268112
 21
13.6408
  0
LINE
  8
0
 10
0.268112
 20
13.6408
 11
0.818069
 21
14.228
  0
LINE
  8
0
 10
0.818069
 20
14.228
 11
1.32845
 21
14.8499
  0
LINE
  8
0
 10
1.32845
 20
14.8499
 11
1.79707
 21
15.5039
  0
LINE
  8
0
 10
1.79707
 20
15.5039
 11
2.22191
 21
16.1871
  0
LINE
  8
0
 10
2.22191
 20
16.1871
 11
2.60115
 21
16.8966
  0
LINE
  8
0
 10
2.60115
 20
16.8966
 11
2.93318
 21
17.6294
  0
LINE
  8
0
 10
2.93318
 20
17.6294
 11
3.21657
 21
18.3824
  0
LINE
  8
0
 10
3.21657
 20
18.3824
 11
3.45012
 21
19.1522
  0
LINE
  8
0
 10
3.45012
 20
19.1522
 11
3.6328
 21
19.9357
  0
LINE
  8
0
 10
3.6328
 20
19.9357
 11
3.76385
 21
20.7295
  0
LINE
  8
0
 10
3.76385
 20
20.7295
 11
3.84271
 21
21.5302
  0
LINE
  8
0
 10
3.84271
 20
21.5302
 11
3.86903
 21
22.3342
  0
LINE
  8
0
 10
3.86903
 20
22.3342
 11
3.86903
 21
30.409
  0
LINE
  8
0
 10
3.86903
 20
30.409
 11
11.15
 21
30.409
  0
LINE
  8
0
 10
11.15
 20
30.409
 11
11.15
 21
35.409
  0
LINE
  8
0
 10
11.15
 20
35.409
 11
3.86903
 21
35.409
  0
LINE
  8
0
 10
3.86903
 20
35.409
 11
3.86903
 21
43.4837
  0
LINE
  8
0
 10
3.86903
 20
43.4837
 11
3.84271
 21
44.2878
  0
LINE
  8
0
 10
3.84271
 20
44.2878
 11
3.76385
 21
45.0884
  0
LINE
  8
0
 10
3.76385
 20
45.0884
 11
3.6328
 21
45.8822
  0
LINE
  8
0
 10
3.6328
 20
45.8822
 11
3.45012
 21
46.6657
  0
LINE
  8
0
 10
3.45012
 20
46.6657
 11
3.21657
 21
47.4356
  0
LINE
  8
0
 10
3.21657
 20
47.4356
 11
2.93318
 21
48.1885
  0
LINE
  8
0
 10
2.93318
 20
48.1885
 11
2.60115
 21
48.9213
  0
LINE
  8
0
 10
2.60115
 20
48.9213
 11
2.22191
 21
49.6308
  0
LINE
  8
0
 10
2.22191
 20
49.6308
 11
1.79707
 21
50.314
  0
LINE
  8
0
 10
1.79707
 20
50.314
 11
1.32845
 21
50.968
  0
LINE
  8
0
 10
1.32845
 20
50.968
 11
0.818069
 21
51.5899
  0
LINE
  8
0
 10
0.818069
 20
51.5899
 11
0.268112
 21
52.1771
  0
LINE
  8
0
 10
0.268112
 20
52.1771
 11
-0.319061
 21
52.727
  0
LINE
  8
0
 10
-0.319061
 20
52.727
 11
-0.940964
 21
53.2374
  0
LINE
  8
0
 10
-0.940964
 20
53.2374
 11
-1.59491
 21
53.706
  0
LINE
  8
0
 10
-1.59491
 20
53.706
 11
-2.27811
 21
54.1309
  0
LINE
  8
0
 10
-2.27811
 20
54.1309
 11
-2.98764
 21
54.5101
  0
LINE
  8
0
 10
-2.98764
 20
54.5101
 11
-3.72044
 21
54.8421
  0
LINE
  8
0
 10
-3.72044
 20
54.8421
 11
-4.47339
 21
55.1255
  0
LINE
  8
0
 10
-4.47339
 20
55.1255
 11
-5.24327
 21
55.3591
  0
LINE
  8
0
 10
-5.24327
 20
55.3591
 11
-6.02676
 21
55.5418
  0
LINE
  8
0
 10
-6.02676
 20
55.5418
 11
-6.82054
 21
55.6728
  0
LINE
  8
0
 10
-6.82054
 20
55.6728
 11
-7.62119
 21
55.7517
  0
LINE
  8
0
 10
-7.62119
 20
55.7517
 11
-8.42528
 21
55.778
  0
LINE
  8
0
 10
-8.42528
 20
55.778
 11
-16.5
 21
55.778
  0
LINE
  8
0
 10
-16.5
 20
55.778
 11
-16.5
 21
63.059
  0
LINE
  8
0
 10
-16.5
 20
63.059
 11
-21.5
 21
63.059
  0
LINE
  8
0
 10
-21.5
 20
63.059
 11
-21.5
 21
55.778
  0
LINE
  8
0
 10
-21.5
 20
55.778
 11
-29.5747
 21
55.778
  0
LINE
  8
0
 10
-29.5747
 20
55.778
 11
-30.3788
 21
55.7517
  0
LINE
  8
0
 10
-30.3788
 20
55.7517
 11
-31.1794
 21
55.6728
  0
LINE
  8
0
 10
-31.1794
 20
55.6728
 11
-31.9732
 21
55.5418
  0
LINE
  8
0
 10
-31.9732
 20
55.5418
 11
-32.7567
 21
55.3591
  0
LINE
  8
0
 10
-32.7567
 20
55.3591
 11
-33.5266
 21
55.1255
  0
LINE
  8
0
 10
-33.5266
 20
55.1255
 11
-34.2795
 21
54.8421
  0
LINE
  8
0
 10
-34.2795
 20
54.8421
 11
-35.0124
 21
54.5101
  0
LINE
  8
0
 10
-35.0124
 20
54.5101
 11
-35.7219
 21
54.1309
  0
LINE
  8
0
 10
-35.7219
 20
54.1309
 11
-36.4051
 21
53.706
  0
LINE
  8
0
 10
-36.4051
 20
53.706
 11
-37.059
 21
53.2374
  0
LINE
  8
0
 10
-37.059
 20
53.2374
 11
-37.6809
 21
52.727
  0
LINE
  8
0
 10
-37.6809
 20
52.727
 11
-38.2681
 21
52.1771
  0
LINE
  8
0
 10
-38.2681
 20
52.1771
 11
-38.8181
 21
51.5899
  0
LINE
  8
0
 10
-38.8181
 20
51.5899
 11
-39.3285
 21
50.968
  0
LINE
  8
0
 10
-39.3285
 20
50.968
 11
-39.7971
 21
50.314
  0
LINE
  8
0
 10
-39.7971
 20
50.314
 11
-40.2219
 21
49.6308
  0
LINE
  8
0
 10
-40.2219
 20
49.6308
 11
-40.6012
 21
48.9213
  0
LINE
  8
0
 10
-40.6012
 20
48.9213
 11
-40.9332
 21
48.1885
  0
LINE
  8
0
 10
-40.9332
 20
48.1885
 11
-41.2166
 21
47.4356
  0
LINE
  8
0
 10
-41.2166
 20
47.4356
 11
-41.4501
 21
46.6657
  0
LINE
  8
0
 10
-41.4501
 20
46.6657
 11
-41.6328
 21
45.8822
  0
LINE
  8
0
 10
-41.6328
 20
45.8822
 11
-41.7639
 21
45.0884
  0
LINE
  8
0
 10
-41.7639
 20
45.0884
 11
-41.8427
 21
44.2878
  0
LINE
  8
0
 10
-41.8427
 20
44.2878
 11
-41.869
 21
43.4837
  0
LINE
  8
0
 10
-41.869
 20
43.4837
 11
-41.869
 21
35.409
  0
LINE
  8
0
 10
-41.869
 20
35.409
 11
-49.15
 21
35.409
  0
LINE
  8
0
 10
-49.15
 20
35.409
 11
-49.15
 21
30.409
  0
LINE
  8
0
 10
-49.15
 20
30.409
 11
-41.869
 21
30.409
  0
LINE
  8
0
 10
-41.869
 20
30.409
 11
-41.869
 21
22.3342
  0
LINE
  8
0
 10
-41.869
 20
22.3342
 11
-41.8427
 21
21.5302
  0
LINE
  8
0
 10
-41.8427
 20
21.5302
 11
-41.7639
 21
20.7295
  0
LINE
  8
0
 10
-41.7639
 20
20.7295
 11
-41.6328
 21
19.9357
  0
LINE
  8
0
 10
-41.6328
 20
19.9357
 11
-41.4501
 21
19.1522
  0
LINE
  8
0
 10
-41.4501
 20
19.1522
 11
-41.2166
 21
18.3824
  0
LINE
  8
0
 10
-41.2166
 20
18.3824
 11
-40.9332
 21
17.6294
  0
LINE
  8
0
 10
-40.9332
 20
17.6294
 11
-40.6012
 21
16.8966
  0
LINE
  8
0
 10
-40.6012
 20
16.8966
 11
-40.2219
 21
16.1871
  0
LINE
  8
0
 10
-40.2219
 20
16.1871
 11
-39.7971
 21
15.5039
  0
LINE
  8
0
 10
-39.7971
 20
15.5039
 11
-39.3285
 21
14.8499
  0
LINE
  8
0
 10
-39.3285
 20
14.8499
 11
-38.8181
 21
14.228
  0
LINE
  8
0
 10
-38.8181
 20
14.228
 11
-38.2681
 21
13.6408
  0
LINE
  8
0
 10
-38.2681
 20
13.6408
 11
-37.6809
 21
13.0909
  0
LINE
  8
0
 10
-37.6809
 20
13.0909
 11
-37.059
 21
12.5805
  0
LINE
  8
0
 10
-37.059
 20
12.5805
 11
-36.4051
 21
12.1119
  0
LINE
  8
0
 10
-36.4051
 20
12.1119
 11
-35.7219
 21
11.687
  0
LINE
  8
0
 10
-35.7219
 20
11.687
 11
-35.0124
 21
11.3078
  0
LINE
  8
0
 10
-35.0124
 20
11.3078
 11
-34.2795
 21
10.9758
  0
LINE
  8
0
 10
-34.2795
 20
10.9758
 11
-33.5266
 21
10.6924
  0
LINE
  8
0
 10
-33.5266
 20
10.6924
 11
-32.7567
 21
10.4588
  0
LINE
  8
0
 10
-32.7567
 20
10.4588
 11
-31.9732
 21
10.2762
  0
LINE
  8
0
 10
-31.9732
 20
10.2762
 11
-31.1794
 21
10.1451
  0
LINE
  8
0
 10
-31.1794
 20
10.1451
 11
-30.3788
 21
10.0662
  0
LINE
  8
0
 10
-30.3788
 20
10.0662
 11
-29.5747
 21
10.0399
  0
LINE
  8
0
 10
-29.5747
 20
10.0399
 11
-21.5
 21
10.0399
  0
LINE
  8
0
 10
-21.5
 20
10.0399
 11
-21.5
 21
2.75896
  0
LINE
  8
0
 10
-21.5
 20
2.75896
 11
-16.5
 21
2.75896
  0
LINE
  8
0
 10
-16.5
 20
2.75896
 11
-16.5
 21
10.0399
  0
LINE
  8
0
 10
-19.3597
 20
27.4207
 11
-19.7179
 21
27.456
  0
LINE
  8
0
 10
-19.7179
 20
27.456
 11
-20.073
 21
27.5146
  0
LINE
  8
0
 10
-20.073
 20
27.5146
 11
-20.4235
 21
27.5964
  0
LINE
  8
0
 10
-20.4235
 20
27.5964
 11
-20.7679
 21
27.7008
  0
LINE
  8
0
 10
-20.7679
 20
27.7008
 11
-21.1048
 21
27.8276
  0
LINE
  8
0
 10
-21.1048
 20
27.8276
 11
-21.4326
 21
27.9762
  0
LINE
  8
0
 10
-21.4326
 20
27.9762
 11
-21.75
 21
28.1458
  0
LINE
  8
0
 10
-21.75
 20
28.1458
 11
-22.0556
 21
28.3359
  0
LINE
  8
0
 10
-22.0556
 20
28.3359
 11
-22.3482
 21
28.5455
  0
LINE
  8
0
 10
-22.3482
 20
28.5455
 11
-22.6264
 21
28.7738
  0
LINE
  8
0
 10
-22.6264
 20
28.7738
 11
-22.8891
 21
29.0199
  0
LINE
  8
0
 10
-22.8891
 20
29.0199
 11
-23.1351
 21
29.2826
  0
LINE
  8
0
 10
-23.1351
 20
29.2826
 11
-23.3634
 21
29.5608
  0
LINE
  8
0
 10
-23.3634
 20
29.5608
 11
-23.5731
 21
29.8533
  0
LINE
  8
0
 10
-23.5731
 20
29.8533
 11
-23.7631
 21
30.159
  0
LINE
  8
0
 10
-23.7631
 20
30.159
 11
-23.9328
 21
30.4764
  0
LINE
  8
0
 10
-23.9328
 20
30.4764
 11
-24.0813
 21
30.8042
  0
LINE
  8
0
 10
-24.0813
 20
30.8042
 11
-24.2081
 21
31.141
  0
LINE
  8
0
 10
-24.2081
 20
31.141
 11
-24.3126
 21
31.4855
  0
LINE
  8
0
 10
-24.3126
 20
31.4855
 11
-24.3943
 21
31.836
  0
LINE
  8
0
 10
-24.3943
 20
31.836
 11
-24.4529
 21
32.1911
  0
LINE
  8
0
 10
-24.4529
 20
32.1911
 11
-24.4882
 21
32.5492
  0
LINE
  8
0
 10
-24.4882
 20
32.5492
 11
-24.5
 21
32.909
  0
LINE
  8
0
 10
-24.5
 20
32.909
 11
-24.4882
 21
33.2687
  0
LINE
  8
0
 10
-24.4882
 20
33.2687
 11
-24.4529
 21
33.6268
  0
LINE
  8
0
 10
-24.4529
 20
33.6268
 11
-24.3943
 21
33.9819
  0
LINE
  8
0
 10
-24.3943
 20
33.9819
 11
-24.3126
 21
34.3325
  0
LINE
  8
0
 10
-24.3126
 20
34.3325
 11
-24.2081
 21
34.6769
  0
LINE
  8
0
 10
-24.2081
 20
34.6769
 11
-24.0813
 21
35.0137
  0
LINE
  8
0
 10
-24.0813
 20
35.0137
 11
-23.9328
 21
35.3416
  0
LINE
  8
0
 10
-23.9328
 20
35.3416
 11
-23.7631
 21
35.659
  0
LINE
  8
0
 10
-23.7631
 20
35.659
 11
-23.5731
 21
35.9646
  0
LINE
  8
0
 10
-23.5731
 20
35.9646
 11
-23.3634
 21
36.2571
  0
LINE
  8
0
 10
-23.3634
 20
36.2571
 11
-23.1351
 21
36.5354
  0
LINE
  8
0
 10
-23.1351
 20
36.5354
 11
-22.8891
 21
36.798
  0
LINE
  8
0
 10
-22.8891
 20
36.798
 11
-22.6264
 21
37.0441
  0
LINE
  8
0
 10
-22.6264
 20
37.0441
 11
-22.3482
 21
37.2724
  0
LINE
  8
0
 10
-22.3482
 20
37.2724
 11
-22.0556
 21
37.482
  0
LINE
  8
0
 10
-22.0556
 20
37.482
 11
-21.75
 21
37.6721
  0
LINE
  8
0
 10
-21.75
 20
37.6721
 11
-21.4326
 21
37.8418
  0
LINE
  8
0
 10
-21.4326
 20
37.8418
 11
-21.1048
 21
37.9903
  0
LINE
  8
0
 10
-21.1048
 20
37.9903
 11
-20.7679
 21
38.1171
  0
LINE
  8
0
 10
-20.7679
 20
38.1171
 11
-20.4235
 21
38.2216
  0
LINE
  8
0
 10
-20.4235
 20
38.2216
 11
-20.073
 21
38.3033
  0
LINE
  8
0
 10
-20.073
 20
38.3033
 11
-19.7179
 21
38.3619
  0
LINE
  8
0
 10
-19.7179
 20
38.3619
 11
-19.3597
 21
38.3972
  0
LINE
  8
0
 10
-19.3597
 20
38.3972
 11
-19
 21
38.409
  0
LINE
  8
0
 10
-19
 20
38.409
 11
-18.6403
 21
38.3972
  0
LINE
  8
0
 10
-18.6403
 20
38.3972
 11
-18.2821
 21
38.3619
  0
LINE
  8
0
 10
-18.2821
 20
38.3619
 11
-17.927
 21
38.3033
  0
LINE
  8
0
 10
-17.927
 20
38.3033
 11
-17.5765
 21
38.2216
  0
LINE
  8
0
 10
-17.5765
 20
38.2216
 11
-17.2321
 21
38.1171
  0
LINE
  8
0
 10
-17.2321
 20
38.1171
 11
-16.8952
 21
37.9903
  0
LINE
  8
0
 10
-16.8952
 20
37.9903
 11
-16.5674
 21
37.8418
  0
LINE
  8
0
 10
-16.5674
 20
37.8418
 11
-16.25
 21
37.6721
  0
LINE
  8
0
 10
-16.25
 20
37.6721
 11
-15.9444
 21
37.482
  0
LINE
  8
0
 10
-15.9444
 20
37.482
 11
-15.6518
 21
37.2724
  0
LINE
  8
0
 10
-15.6518
 20
37.2724
 11
-15.3736
 21
37.0441
  0
LINE
  8
0
 10
-15.3736
 20
37.0441
 11
-15.1109
 21
36.798
  0
LINE
  8
0
 10
-15.1109
 20
36.798
 11
-14.8649
 21
36.5354
  0
LINE
  8
0
 10
-14.8649
 20
36.5354
 11
-14.6366
 21
36.2571
  0
LINE
  8
0
 10
-14.6366
 20
36.2571
 11
-14.4269
 21
35.9646
  0
LINE
  8
0
 10
-14.4269
 20
35.9646
 11
-14.2368
 21
35.659
  0
LINE
  8
0
 10
-14.2368
 20
35.659
 11
-14.0672
 21
35.3416
  0
LINE
  8
0
 10
-14.0672
 20
35.3416
 11
-13.9187
 21
35.0137
  0
LINE
  8
0
 10
-13.9187
 20
35.0137
 11
-13.7919
 21
34.6769
  0
LINE
  8
0
 10
-13.7919
 20
34.6769
 11
-13.6874
 21
34.3325
  0
LINE
  8
0
 10
-13.6874
 20
34.3325
 11
-13.6057
 21
33.9819
  0
LINE
  8
0
 10
-13.6057
 20
33.9819
 11
-13.547
 21
33.6268
  0
LINE
  8
0
 10
-13.547
 20
33.6268
 11
-13.5118
 21
33.2687
  0
LINE
  8
0
 10
-13.5118
 20
33.2687
 11
-13.5
 21
32.909
  0
LINE
  8
0
 10
-13.5
 20
32.909
 11
-13.5118
 21
32.5492
  0
LINE
  8
0
 10
-13.5118
 20
32.5492
 11
-13.547
 21
32.1911
  0
LINE
  8
0
 10
-13.547
 20
32.1911
 11
-13.6057
 21
31.836
  0
LINE
  8
0
 10
-13.6057
 20
31.836
 11
-13.6874
 21
31.4855
  0
LINE
  8
0
 10
-13.6874
 20
31.4855
 11
-13.7919
 21
31.141
  0
LINE
  8
0
 10
-13.7919
 20
31.141
 11
-13.9187
 21
30.8042
  0
LINE
  8
0
 10
-13.9187
 20
30.8042
 11
-14.0672
 21
30.4764
  0
LINE
  8
0
 10
-14.0672
 20
30.4764
 11
-14.2368
 21
30.159
  0
LINE
  8
0
 10
-14.2368
 20
30.159
 11
-14.4269
 21
29.8533
  0
LINE
  8
0
 10
-14.4269
 20
29.8533
 11
-14.6366
 21
29.5608
  0
LINE
  8
0
 10
-14.6366
 20
29.5608
 11
-14.8649
 21
29.2826
  0
LINE
  8
0
 10
-14.8649
 20
29.2826
 11
-15.1109
 21
29.0199
  0
LINE
  8
0
 10
-15.1109
 20
29.0199
 11
-15.3736
 21
28.7738
  0
LINE
  8
0
 10
-15.3736
 20
28.7738
 11
-15.6518
 21
28.5455
  0
LINE
  8
0
 10
-15.6518
 20
28.5455
 11
-15.9444
 21
28.3359
  0
LINE
  8
0
 10
-15.9444
 20
28.3359
 11
-16.25
 21
28.1458
  0
LINE
  8
0
 10
-16.25
 20
28.1458
 11
-16.5674
 21
27.9762
  0
LINE
  8
0
 10
-16.5674
 20
27.9762
 11
-16.8952
 21
27.8276
  0
LINE
  8
0
 10
-16.8952
 20
27.8276
 11
-17.2321
 21
27.7008
  0
LINE
  8
0
 10
-17.2321
 20
27.7008
 11
-17.5765
 21
27.5964
  0
LINE
  8
0
 10
-17.5765
 20
27.5964
 11
-17.927
 21
27.5146
  0
LINE
  8
0
 10
-17.927
 20
27.5146
 11
-18.2821
 21
27.456
  0
LINE
  8
0
 10
-18.2821
 20
27.456
 11
-18.6403
 21
27.4207
  0
LINE
  8
0
 10
-18.6403
 20
27.4207
 11
-19
 21
27.409
  0
LINE
  8
0
 10
-19
 20
27.409
 11
-19.3597
 21
27.4207
  0
LINE
  8
0
 10
40.5
 20
-20.949
 11
41.7204
 21
-20.9096
  0
LINE
  8
0
 10
41.7204
 20
-20.9096
 11
42.9209
 21
-20.7913
  0
LINE
  8
0
 10
42.9209
 20
-20.7913
 11
44.1111
 21
-20.5948
  0
LINE
  8
0
 10
44.1111
 20
-20.5948
 11
45.2859
 21
-20.3209
  0
LINE
  8
0
 10
45.2859
 20
-20.3209
 11
46.4402
 21
-19.9707
  0
LINE
  8
0
 10
46.4402
 20
-19.9707
 11
47.5692
 21
-19.5458
  0
LINE
  8
0
 10
47.5692
 20
-19.5458
 11
48.668
 21
-19.048
  0
LINE
  8
0
 10
48.668
 20
-19.048
 11
49.7319
 21
-18.4793
  0
LINE
  8
0
 10
49.7319
 20
-18.4793
 11
50.7563
 21
-17.8423
  0
LINE
  8
0
 10
50.7563
 20
-17.8423
 11
51.7368
 21
-17.1396
  0
LINE
  8
0
 10
51.7368
 20
-17.1396
 11
52.6693
 21
-16.3744
  0
LINE
  8
0
 10
52.6693
 20
-16.3744
 11
53.5497
 21
-15.5497
  0
LINE
  8
0
 10
53.5497
 20
-15.5497
 11
54.3744
 21
-14.6693
  0
LINE
  8
0
 10
54.3744
 20
-14.6693
 11
55.1396
 21
-13.7368
  0
LINE
  8
0
 10
55.1396
 20
-13.7368
 11
55.8423
 21
-12.7563
  0
LINE
  8
0
 10
55.8423
 20
-12.7563
 11
56.4793
 21
-11.7319
  0
LINE
  8
0
 10
56.4793
 20
-11.7319
 11
57.048
 21
-10.668
  0
LINE
  8
0
 10
57.048
 20
-10.668
 11
57.5458
 21
-9.56923
  0
LINE
  8
0
 10
57.5458
 20
-9.56923
 11
57.9707
 21
-8.44023
  0
LINE
  8
0
 10
57.9707
 20
-8.44023
 11
58.3209
 21
-7.28586
  0
LINE
  8
0
 10
58.3209
 20
-7.28586
 11
58.5948
 21
-6.11107
  0
LINE
  8
0
 10
58.5948
 20
-6.11107
 11
58.7913
 21
-4.92087
  0
LINE
  8
0
 10
58.7913
 20
-4.92087
 11
58.9096
 21
-3.72037
  0
LINE
  8
0
 10
58.9096
 20
-3.72037
 11
58.949
 21
-2.5
  0
LINE
  8
0
 10
58.949
 20
-2.5
 11
68.15
 21
-2.5
  0
LINE
  8
0
 10
68.15
 20
-2.5
 11
68.15
 21
2.5
  0
LINE
  8
0
 10
68.15
 20
2.5
 11
58.949
 21
2.5
  0
LINE
  8
0
 10
58.949
 20
2.5
 11
58.9096
 21
3.72037
  0
LINE
  8
0
 10
58.9096
 20
3.72037
 11
58.7913
 21
4.92087
  0
LINE
  8
0
 10
58.7913
 20
4.92087
 11
58.5948
 21
6.11107
  0
LINE
  8
0
 10
58.5948
 20
6.11107
 11
58.3209
 21
7.28586
  0
LINE
  8
0
 10
58.3209
 20
7.28586
 11
57.9707
 21
8.44023
  0
LINE
  8
0
 10
57.9707
 20
8.44023
 11
57.5458
 21
9.56923
  0
LINE
  8
0
 10
57.5458
 20
9.56923
 11
57.048
 21
10.668
  0
LINE
  8
0
 10
57.048
 20
10.668
 11
56.4793
 21
11.7319
  0
LINE
  8
0
 10
56.4793
 20
11.7319
 11
55.8423
 21
12.7563
  0
LINE
  8
0
 10
55.8423
 20
12.7563
 11
55.1396
 21
13.7368
  0
LINE
  8
0
 10
55.1396
 20
13.7368
 11
54.3744
 21
14.6693
  0
LINE
  8
0
 10
54.3744
 20
14.6693
 11
53.5497
 21
15.5497
  0
LINE
  8
0
 10
53.5497
 20
15.5497
 11
52.6693
 21
16.3744
  0
LINE
  8
0
 10
52.6693
 20
16.3744
 11
51.7368
 21
17.1396
  0
LINE
  8
0
 10
51.7368
 20
17.1396
 11
50.7563
 21
17.8423
  0
LINE
  8
0
 10
50.7563
 20
17.8423
 11
49.7319
 21
18.4793
  0
LINE
  8
0
 10
49.7319
 20
18.4793
 11
48.668
 21
19.048
  0
LINE
  8
0
 10
48.668
 20
19.048
 11
47.5692
 21
19.5458
  0
LINE
  8
0
 10
47.5692
 20
19.5458
 11
46.4402
 21
19.9707
  0
LINE
  8
0
 10
46.4402
 20
19.9707
 11
45.2859
 21
20.3209
  0
LINE
  8
0
 10
45.2859
 20
20.3209
 11
44.1111
 21
20.5948
  0
LINE
  8
0
 10
44.1111
 20
20.5948
 11
42.9209
 21
20.7913
  0
LINE
  8
0
 10
42.9209
 20
20.7913
 11
41.7204
 21
20.9096
  0
LINE
  8
0
 10
41.7204
 20
20.9096
 11
40.5
 21
20.949
  0
LINE
  8
0
 10
40.5
 20
20.949
 11
40.5
 21
30.15
  0
LINE
  8
0
 10
40.5
 20
30.15
 11
35.5
 21
30.15
  0
LINE
  8
0
 10
35.5
 20
30.15
 11
35.5
 21
20.949
  0
LINE
  8
0
 10
35.5
 20
20.949
 11
34.2796
 21
20.9096
  0
LINE
  8
0
 10
34.2796
 20
20.9096
 11
33.0791
 21
20.7913
  0
LINE
  8
0
 10
33.0791
 20
20.7913
 11
31.8889
 21
20.5948
  0
LINE
  8
0
 10
31.8889
 20
20.5948
 11
30.7141
 21
20.3209
  0
LINE
  8
0
 10
30.7141
 20
20.3209
 11
29.5598
 21
19.9707
  0
LINE
  8
0
 10
29.5598
 20
19.9707
 11
28.4308
 21
19.5458
  0
LINE
  8
0
 10
28.4308
 20
19.5458
 11
27.332
 21
19.048
  0
LINE
  8
0
 10
27.332
 20
19.048
 11
26.2681
 21
18.4793
  0
LINE
  8
0
 10
26.2681
 20
18.4793
 11
25.2437
 21
17.8423
  0
LINE
  8
0
 10
25.2437
 20
17.8423
 11
24.2632
 21
17.1396
  0
LINE
  8
0
 10
24.2632
 20
17.1396
 11
23.3307
 21
16.3744
  0
LINE
  8
0
 10
23.3307
 20
16.3744
 11
22.4502
 21
15.5497
  0
LINE
  8
0
 10
22.4502
 20
15.5497
 11
21.6256
 21
14.6693
  0
LINE
  8
0
 10
21.6256
 20
14.6693
 11
20.8604
 21
13.7368
  0
LINE
  8
0
 10
20.8604
 20
13.7368
 11
20.1577
 21
12.7563
  0
LINE
  8
0
 10
20.1577
 20
12.7563
 11
19.5207
 21
11.7319
  0
LINE
  8
0
 10
19.5207
 20
11.7319
 11
18.952
 21
10.668
  0
LINE
  8
0
 10
18.952
 20
10.668
 11
18.4542
 21
9.56923
  0
LINE
  8
0
 10
18.4542
 20
9.56923
 11
18.0293
 21
8.44023
  0
LINE
  8
0
 10
18.0293
 20
8.44023
 11
17.6791
 21
7.28586
  0
LINE
  8
0
 10
17.6791
 20
7.28586
 11
17.4052
 21
6.11107
  0
LINE
  8
0
 10
17.4052
 20
6.11107
 11
17.2087
 21
4.92087
  0
LINE
  8
0
 10
17.2087
 20
4.92087
 11
17.0904
 21
3.72037
  0
LINE
  8
0
 10
17.0904
 20
3.72037
 11
17.0509
 21
2.5
  0
LINE
  8
0
 10
17.0509
 20
2.5
 11
7.84999
 21
2.5
  0
LINE
  8
0
 10
7.84999
 20
2.5
 11
7.84999
 21
-2.5
  0
LINE
  8
0
 10
7.84999
 20
-2.5
 11
17.0509
 21
-2.5
  0
LINE
  8
0
 10
17.0509
 20
-2.5
 11
17.0904
 21
-3.72037
  0
LINE
  8
0
 10
17.0904
 20
-3.72037
 11
17.2087
 21
-4.92087
  0
LINE
  8
0
 10
17.2087
 20
-4.92087
 11
17.4052
 21
-6.11107
  0
LINE
  8
0
 10
17.4052
 20
-6.11107
 11
17.6791
 21
-7.28586
  0
LINE
  8
0
 10
17.6791
 20
-7.28586
 11
18.0293
 21
-8.44023
  0
LINE
  8
0
 10
18.0293
 20
-8.44023
 11
18.4542
 21
-9.56923
  0
LINE
  8
0
 10
18.4542
 20
-9.56923
 11
18.952
 21
-10.668
  0
LINE
  8
0
 10
18.952
 20
-10.668
 11
19.5207
 21
-11.7319
  0
LINE
  8
0
 10
19.5207
 20
-11.7319
 11
20.1577
 21
-12.7563
  0
LINE
  8
0
 10
20.1577
 20
-12.7563
 11
20.8604
 21
-13.7368
  0
LINE
  8
0
 10
20.8604
 20
-13.7368
 11
21.6256
 21
-14.6693
  0
LINE
  8
0
 10
21.6256
 20
-14.6693
 11
22.4502
 21
-15.5497
  0
LINE
  8
0
 10
22.4502
 20
-15.5497
 11
23.3307
 21
-16.3744
  0
LINE
  8
0
 10
23.3307
 20
-16.3744
 11
24.2632
 21
-17.1396
  0
LINE
  8
0
 10
24.2632
 20
-17.1396
 11
25.2437
 21
-17.8423
  0
LINE
  8
0
 10
25.2437
 20
-17.8423
 11
26.2681
 21
-18.4793
  0
LINE
  8
0
 10
26.2681
 20
-18.4793
 11
27.332
 21
-19.048
  0
LINE
  8
0
 10
27.332
 20
-19.048
 11
28.4308
 21
-19.5458
  0
LINE
  8
0
 10
28.4308
 20
-19.5458
 11
29.5598
 21
-19.9707
  0
LINE
  8
0
 10
29.5598
 20
-19.9707
 11
30.7141
 21
-20.3209
  0
LINE
  8
0
 10
30.7141
 20
-20.3209
 11
31.8889
 21
-20.5948
  0
LINE
  8
0
 10
31.8889
 20
-20.5948
 11
33.0791
 21
-20.7913
  0
LINE
  8
0
 10
33.0791
 20
-20.7913
 11
34.2796
 21
-20.9096
  0
LINE
  8
0
 10
34.2796
 20
-20.9096
 11
35.5
 21
-20.949
  0
LINE
  8
0
 10
35.5
 20
-20.949
 11
35.5
 21
-30.15
  0
LINE
  8
0
 10
35.5
 20
-30.15
 11
40.5
 21
-30.15
  0
LINE
  8
0
 10
40.5
 20
-30.15
 11
40.5
 21
-20.949
  0
LINE
  8
0
 10
37.6403
 20
-5.48822
 11
37.2821
 21
-5.45294
  0
LINE
  8
0
 10
37.2821
 20
-5.45294
 11
36.927
 21
-5.39432
  0
LINE
  8
0
 10
36.927
 20
-5.39432
 11
36.5765
 21
-5.31259
  0
LINE
  8
0
 10
36.5765
 20
-5.31259
 11
36.2321
 21
-5.20811
  0
LINE
  8
0
 10
36.2321
 20
-5.20811
 11
35.8952
 21
-5.08133
  0
LINE
  8
0
 10
35.8952
 20
-5.08133
 11
35.5674
 21
-4.9328
  0
LINE
  8
0
 10
35.5674
 20
-4.9328
 11
35.25
 21
-4.76314
  0
LINE
  8
0
 10
35.25
 20
-4.76314
 11
34.9444
 21
-4.57307
  0
LINE
  8
0
 10
34.9444
 20
-4.57307
 11
34.6518
 21
-4.36343
  0
LINE
  8
0
 10
34.6518
 20
-4.36343
 11
34.3736
 21
-4.13512
  0
LINE
  8
0
 10
34.3736
 20
-4.13512
 11
34.1109
 21
-3.88908
  0
LINE
  8
0
 10
34.1109
 20
-3.88908
 11
33.8649
 21
-3.62639
  0
LINE
  8
0
 10
33.8649
 20
-3.62639
 11
33.6366
 21
-3.34818
  0
LINE
  8
0
 10
33.6366
 20
-3.34818
 11
33.4269
 21
-3.05563
  0
LINE
  8
0
 10
33.4269
 20
-3.05563
 11
33.2369
 21
-2.75
  0
LINE
  8
0
 10
33.2369
 20
-2.75
 11
33.0672
 21
-2.43259
  0
LINE
  8
0
 10
33.0672
 20
-2.43259
 11
32.9187
 21
-2.10475
  0
LINE
  8
0
 10
32.9187
 20
-2.10475
 11
32.7919
 21
-1.76791
  0
LINE
  8
0
 10
32.7919
 20
-1.76791
 11
32.6874
 21
-1.42349
  0
LINE
  8
0
 10
32.6874
 20
-1.42349
 11
32.6057
 21
-1.07298
  0
LINE
  8
0
 10
32.6057
 20
-1.07298
 11
32.547
 21
-0.71788
  0
LINE
  8
0
 10
32.547
 20
-0.71788
 11
32.5118
 21
-0.359711
  0
LINE
  8
0
 10
32.5118
 20
-0.359711
 11
32.5
 21
0
  0
LINE
  8
0
 10
32.5
 20
0
 11
32.5118
 21
0.359711
  0
LINE
  8
0
 10
32.5118
 20
0.359711
 11
32.547
 21
0.71788
  0
LINE
  8
0
 10
32.547
 20
0.71788
 11
32.6057
 21
1.07298
  0
LINE
  8
0
 10
32.6057
 20
1.07298
 11
32.6874
 21
1.42349
  0
LINE
  8
0
 10
32.6874
 20
1.42349
 11
32.7919
 21
1.76791
  0
LINE
  8
0
 10
32.7919
 20
1.76791
 11
32.9187
 21
2.10475
  0
LINE
  8
0
 10
32.9187
 20
2.10475
 11
33.0672
 21
2.43259
  0
LINE
  8
0
 10
33.0672
 20
2.43259
 11
33.2369
 21
2.75
  0
LINE
  8
0
 10
33.2369
 20
2.75
 11
33.4269
 21
3.05563
  0
LINE
  8
0
 10
33.4269
 20
3.05563
 11
33.6366
 21
3.34818
  0
LINE
  8
0
 10
33.6366
 20
3.34818
 11
33.8649
 21
3.62639
  0
LINE
  8
0
 10
33.8649
 20
3.62639
 11
34.1109
 21
3.88908
  0
LINE
  8
0
 10
34.1109
 20
3.88908
 11
34.3736
 21
4.13512
  0
LINE
  8
0
 10
34.3736
 20
4.13512
 11
34.6518
 21
4.36343
  0
LINE
  8
0
 10
34.6518
 20
4.36343
 11
34.9444
 21
4.57307
  0
LINE
  8
0
 10
34.9444
 20
4.57307
 11
35.25
 21
4.76314
  0
LINE
  8
0
 10
35.25
 20
4.76314
 11
35.5674
 21
4.9328
  0
LINE
  8
0
 10
35.5674
 20
4.9328
 11
35.8952
 21
5.08133
  0
LINE
  8
0
 10
35.8952
 20
5.08133
 11
36.2321
 21
5.20811
  0
LINE
  8
0
 10
36.2321
 20
5.20811
 11
36.5765
 21
5.31259
  0
LINE
  8
0
 10
36.5765
 20
5.31259
 11
36.927
 21
5.39432
  0
LINE
  8
0
 10
36.927
 20
5.39432
 11
37.2821
 21
5.45294
  0
LINE
  8
0
 10
37.2821
 20
5.45294
 11
37.6403
 21
5.48822
  0
LINE
  8
0
 10
37.6403
 20
5.48822
 11
38
 21
5.5
  0
LINE
  8
0
 10
38
 20
5.5
 11
38.3597
 21
5.48822
  0
LINE
  8
0
 10
38.3597
 20
5.48822
 11
38.7179
 21
5.45294
  0
LINE
  8
0
 10
38.7179
 20
5.45294
 11
39.073
 21
5.39432
  0
LINE
  8
0
 10
39.073
 20
5.39432
 11
39.4235
 21
5.31259
  0
LINE
  8
0
 10
39.4235
 20
5.31259
 11
39.7679
 21
5.20811
  0
LINE
  8
0
 10
39.7679
 20
5.20811
 11
40.1048
 21
5.08133
  0
LINE
  8
0
 10
40.1048
 20
5.08133
 11
40.4326
 21
4.9328
  0
LINE
  8
0
 10
40.4326
 20
4.9328
 11
40.75
 21
4.76314
  0
LINE
  8
0
 10
40.75
 20
4.76314
 11
41.0556
 21
4.57307
  0
LINE
  8
0
 10
41.0556
 20
4.57307
 11
41.3482
 21
4.36343
  0
LINE
  8
0
 10
41.3482
 20
4.36343
 11
41.6264
 21
4.13512
  0
LINE
  8
0
 10
41.6264
 20
4.13512
 11
41.8891
 21
3.88908
  0
LINE
  8
0
 10
41.8891
 20
3.88908
 11
42.1351
 21
3.62639
  0
LINE
  8
0
 10
42.1351
 20
3.62639
 11
42.3634
 21
3.34818
  0
LINE
  8
0
 10
42.3634
 20
3.34818
 11
42.5731
 21
3.05563
  0
LINE
  8
0
 10
42.5731
 20
3.05563
 11
42.7631
 21
2.75
  0
LINE
  8
0
 10
42.7631
 20
2.75
 11
42.9328
 21
2.43259
  0
LINE
  8
0
 10
42.9328
 20
2.43259
 11
43.0813
 21
2.10475
  0
LINE
  8
0
 10
43.0813
 20
2.10475
 11
43.2081
 21
1.76791
  0
LINE
  8
0
 10
43.2081
 20
1.76791
 11
43.3126
 21
1.42349
  0
LINE
  8
0
 10
43.3126
 20
1.42349
 11
43.3943
 21
1.07298
  0
LINE
  8
0
 10
43.3943
 20
1.07298
 11
43.4529
 21
0.71788
  0
LINE
  8
0
 10
43.4529
 20
0.71788
 11
43.4882
 21
0.359711
  0
LINE
  8
0
 10
43.4882
 20
0.359711
 11
43.5
 21
0
  0
LINE
  8
0
 10
43.5
 20
0
 11
43.4882
 21
-0.359711
  0
LINE
  8
0
 10
43.4882
 20
-0.359711
 11
43.4529
 21
-0.71788
  0
LINE
  8
0
 10
43.4529
 20
-0.71788
 11
43.3943
 21
-1.07298
  0
LINE
  8
0
 10
43.3943
 20
-1.07298
 11
43.3126
 21
-1.42349
  0
LINE
  8
0
 10
43.3126
 20
-1.42349
 11
43.2081
 21
-1.76791
  0
LINE
  8
0
 10
43.2081
 20
-1.76791
 11
43.0813
 21
-2.10475
  0
LINE
  8
0
 10
43.0813
 20
-2.10475
 11
42.9328
 21
-2.43259
  0
LINE
  8
0
 10
42.9328
 20
-2.43259
 11
42.7631
 21
-2.75
  0
LINE
  8
0
 10
42.7631
 20
-2.75
 11
42.5731
 21
-3.05563
  0
LINE
  8
0
 10
42.5731
 20
-3.05563
 11
42.3634
 21
-3.34818
  0
LINE
  8
0
 10
42.3634
 20
-3.34818
 11
42.1351
 21
-3.62639
  0
LINE
  8
0
 10
42.1351
 20
-3.62639
 11
41.8891
 21
-3.88908
  0
LINE
  8
0
 10
41.8891
 20
-3.88908
 11
41.6264
 21
-4.13512
  0
LINE
  8
0
 10
41.6264
 20
-4.13512
 11
41.3482
 21
-4.36343
  0
LINE
  8
0
 10
41.3482
 20
-4.36343
 11
41.0556
 21
-4.57307
  0
LINE
  8
0
 10
41.0556
 20
-4.57307
 11
40.75
 21
-4.76314
  0
LINE
  8
0
 10
40.75
 20
-4.76314
 11
40.4326
 21
-4.9328
  0
LINE
  8
0
 10
40.4326
 20
-4.9328
 11
40.1048
 21
-5.08133
  0
LINE
  8
0
 10
40.1048
 20
-5.08133
 11
39.7679
 21
-5.20811
  0
LINE
  8
0
 10
39.7679
 20
-5.20811
 11
39.4235
 21
-5.31259
  0
LINE
  8
0
 10
39.4235
 20
-5.31259
 11
39.073
 21
-5.39432
  0
LINE
  8
0
 10
39.073
 20
-5.39432
 11
38.7179
 21
-5.45294
  0
LINE
  8
0
 10
38.7179
 20
-5.45294
 11
38.3597
 21
-5.48822
  0
LINE
  8
0
 10
38.3597
 20
-5.48822
 11
38
 21
-5.5
  0
LINE
  8
0
 10
38
 20
-5.5
 11
37.6403
 21
-5.48822
  0
LINE
  8
0
 10
-16.5
 20
-57.698
 11
-0.365265
 21
-57.698
  0
LINE
  8
0
 10
-0.365265
 20
-57.698
 11
0.0372314
 21
-57.6848
  0
LINE
  8
0
 10
0.0372314
 20
-57.6848
 11
0.438019
 21
-57.6454
  0
LINE
  8
0
 10
0.438019
 20
-57.6454
 11
0.835358
 21
-57.5797
  0
LINE
  8
0
 10
0.835358
 20
-57.5797
 11
1.22757
 21
-57.4883
  0
LINE
  8
0
 10
1.22757
 20
-57.4883
 11
1.61296
 21
-57.3714
  0
LINE
  8
0
 10
1.61296
 20
-57.3714
 11
1.98987
 21
-57.2295
  0
LINE
  8
0
 10
1.98987
 20
-57.2295
 11
2.3567
 21
-57.0633
  0
LINE
  8
0
 10
2.3567
 20
-57.0633
 11
2.71187
 21
-56.8735
  0
LINE
  8
0
 10
2.71187
 20
-56.8735
 11
3.05386
 21
-56.6608
  0
LINE
  8
0
 10
3.05386
 20
-56.6608
 11
3.38123
 21
-56.4262
  0
LINE
  8
0
 10
3.38123
 20
-56.4262
 11
3.69254
 21
-56.1707
  0
LINE
  8
0
 10
3.69254
 20
-56.1707
 11
3.98648
 21
-55.8954
  0
LINE
  8
0
 10
3.98648
 20
-55.8954
 11
4.26178
 21
-55.6015
  0
LINE
  8
0
 10
4.26178
 20
-55.6015
 11
4.51726
 21
-55.2902
  0
LINE
  8
0
 10
4.51726
 20
-55.2902
 11
4.75185
 21
-54.9628
  0
LINE
  8
0
 10
4.75185
 20
-54.9628
 11
4.96451
 21
-54.6208
  0
LINE
  8
0
 10
4.96451
 20
-54.6208
 11
5.15436
 21
-54.2657
  0
LINE
  8
0
 10
5.15436
 20
-54.2657
 11
5.32056
 21
-53.8988
  0
LINE
  8
0
 10
5.32056
 20
-53.8988
 11
5.46242
 21
-53.5219
  0
LINE
  8
0
 10
5.46242
 20
-53.5219
 11
5.57933
 21
-53.1365
  0
LINE
  8
0
 10
5.57933
 20
-53.1365
 11
5.67078
 21
-52.7443
  0
LINE
  8
0
 10
5.67078
 20
-52.7443
 11
5.73639
 21
-52.347
  0
LINE
  8
0
 10
5.73639
 20
-52.347
 11
5.77585
 21
-51.9462
  0
LINE
  8
0
 10
5.77585
 20
-51.9462
 11
5.78903
 21
-51.5437
  0
LINE
  8
0
 10
5.78903
 20
-51.5437
 11
5.78903
 21
-35.409
  0
LINE
  8
0
 10
5.78903
 20
-35.409
 11
11.15
 21
-35.409
  0
LINE
  8
0
 10
11.15
 20
-35.409
 11
11.15
 21
-30.409
  0
LINE
  8
0
 10
11.15
 20
-30.409
 11
5.78903
 21
-30.409
  0
LINE
  8
0
 10
5.78903
 20
-30.409
 11
5.78903
 21
-14.2742
  0
LINE
  8
0
 10
5.78903
 20
-14.2742
 11
5.77585
 21
-13.8717
  0
LINE
  8
0
 10
5.77585
 20
-13.8717
 11
5.73639
 21
-13.4709
  0
LINE
  8
0
 10
5.73639
 20
-13.4709
 11
5.67078
 21
-13.0736
  0
LINE
  8
0
 10
5.67078
 20
-13.0736
 11
5.57933
 21
-12.6814
  0
LINE
  8
0
 10
5.57933
 20
-12.6814
 11
5.46242
 21
-12.296
  0
LINE
  8
0
 10
5.46242
 20
-12.296
 11
5.32056
 21
-11.9191
  0
LINE
  8
0
 10
5.32056
 20
-11.9191
 11
5.15436
 21
-11.5522
  0
LINE
  8
0
 10
5.15436
 20
-11.5522
 11
4.96451
 21
-11.1971
  0
LINE
  8
0
 10
4.96451
 20
-11.1971
 11
4.75185
 21
-10.8551
  0
LINE
  8
0
 10
4.75185
 20
-10.8551
 11
4.51726
 21
-10.5277
  0
LINE
  8
0
 10
4.51726
 20
-10.5277
 11
4.26178
 21
-10.2164
  0
LINE
  8
0
 10
4.26178
 20
-10.2164
 11
3.98648
 21
-9.92247
  0
LINE
  8
0
 10
3.98648
 20
-9.92247
 11
3.69254
 21
-9.64717
  0
LINE
  8
0
 10
3.69254
 20
-9.64717
 11
3.38123
 21
-9.39169
  0
LINE
  8
0
 10
3.38123
 20
-9.39169
 11
3.05386
 21
-9.1571
  0
LINE
  8
0
 10
3.05386
 20
-9.1571
 11
2.71187
 21
-8.94444
  0
LINE
  8
0
 10
2.71187
 20
-8.94444
 11
2.3567
 21
-8.75459
  0
LINE
  8
0
 10
2.3567
 20
-8.75459
 11
1.98987
 21
-8.58839
  0
LINE
  8
0
 10
1.98987
 20
-8.58839
 11
1.61296
 21
-8.44653
  0
LINE
  8
0
 10
1.61296
 20
-8.44653
 11
1.22757
 21
-8.32962
  0
LINE
  8
0
 10
1.22757
 20
-8.32962
 11
0.835358
 21
-8.23817
  0
LINE
  8
0
 10
0.835358
 20
-8.23817
 11
0.438019
 21
-8.17256
  0
LINE
  8
0
 10
0.438019
 20
-8.17256
 11
0.0372314
 21
-8.1331
  0
LINE
  8
0
 10
0.0372314
 20
-8.1331
 11
-0.365265
 21
-8.11992
  0
LINE
  8
0
 10
-0.365265
 20
-8.11992
 11
-16.5
 21
-8.11992
  0
LINE
  8
0
 10
-16.5
 20
-8.11992
 11
-16.5
 21
-2.75896
  0
LINE
  8
0
 10
-16.5
 20
-2.75896
 11
-21.5
 21
-2.75896
  0
LINE
  8
0
 10
-21.5
 20
-2.75896
 11
-21.5
 21
-8.11992
  0
LINE
  8
0
 10
-21.5
 20
-8.11992
 11
-37.6347
 21
-8.11992
  0
LINE
  8
0
 10
-37.6347
 20
-8.11992
 11
-38.0372
 21
-8.1331
  0
LINE
  8
0
 10
-38.0372
 20
-8.1331
 11
-38.438
 21
-8.17256
  0
LINE
  8
0
 10
-38.438
 20
-8.17256
 11
-38.8354
 21
-8.23817
  0
LINE
  8
0
 10
-38.8354
 20
-8.23817
 11
-39.2276
 21
-8.32962
  0
LINE
  8
0
 10
-39.2276
 20
-8.32962
 11
-39.613
 21
-8.44653
  0
LINE
  8
0
 10
-39.613
 20
-8.44653
 11
-39.9899
 21
-8.58839
  0
LINE
  8
0
 10
-39.9899
 20
-8.58839
 11
-40.3567
 21
-8.75459
  0
LINE
  8
0
 10
-40.3567
 20
-8.75459
 11
-40.7119
 21
-8.94444
  0
LINE
  8
0
 10
-40.7119
 20
-8.94444
 11
-41.0539
 21
-9.1571
  0
LINE
  8
0
 10
-41.0539
 20
-9.1571
 11
-41.3812
 21
-9.39169
  0
LINE
  8
0
 10
-41.3812
 20
-9.39169
 11
-41.6925
 21
-9.64717
  0
LINE
  8
0
 10
-41.6925
 20
-9.64717
 11
-41.9865
 21
-9.92247
  0
LINE
  8
0
 10
-41.9865
 20
-9.92247
 11
-42.2618
 21
-10.2164
  0
LINE
  8
0
 10
-42.2618
 20
-10.2164
 11
-42.5173
 21
-10.5277
  0
LINE
  8
0
 10
-42.5173
 20
-10.5277
 11
-42.7518
 21
-10.8551
  0
LINE
  8
0
 10
-42.7518
 20
-10.8551
 11
-42.9645
 21
-11.1971
  0
LINE
  8
0
 10
-42.9645
 20
-11.1971
 11
-43.1544
 21
-11.5522
  0
LINE
  8
0
 10
-43.1544
 20
-11.5522
 11
-43.3206
 21
-11.9191
  0
LINE
  8
0
 10
-43.3206
 20
-11.9191
 11
-43.4624
 21
-12.296
  0
LINE
  8
0
 10
-43.4624
 20
-12.296
 11
-43.5793
 21
-12.6814
  0
LINE
  8
0
 10
-43.5793
 20
-12.6814
 11
-43.6708
 21
-13.0736
  0
LINE
  8
0
 10
-43.6708
 20
-13.0736
 11
-43.7364
 21
-13.4709
  0
LINE
  8
0
 10
-43.7364
 20
-13.4709
 11
-43.7759
 21
-13.8717
  0
LINE
  8
0
 10
-43.7759
 20
-13.8717
 11
-43.789
 21
-14.2742
  0
LINE
  8
0
 10
-43.789
 20
-14.2742
 11
-43.789
 21
-30.409
  0
LINE
  8
0
 10
-43.789
 20
-30.409
 11
-49.15
 21
-30.409
  0
LINE
  8
0
 10
-49.15
 20
-30.409
 11
-49.15
 21
-35.409
  0
LINE
  8
0
 10
-49.15
 20
-35.409
 11
-43.789
 21
-35.409
  0
LINE
  8
0
 10
-43.789
 20
-35.409
 11
-43.789
 21
-51.5437
  0
LINE
  8
0
 10
-43.789
 20
-51.5437
 11
-43.7759
 21
-51.9462
  0
LINE
  8
0
 10
-43.7759
 20
-51.9462
 11
-43.7364
 21
-52.347
  0
LINE
  8
0
 10
-43.7364
 20
-52.347
 11
-43.6708
 21
-52.7443
  0
LINE
  8
0
 10
-43.6708
 20
-52.7443
 11
-43.5793
 21
-53.1365
  0
LINE
  8
0
 10
-43.5793
 20
-53.1365
 11
-43.4624
 21
-53.5219
  0
LINE
  8
0
 10
-43.4624
 20
-53.5219
 11
-43.3206
 21
-53.8988
  0
LINE
  8
0
 10
-43.3206
 20
-53.8988
 11
-43.1544
 21
-54.2657
  0
LINE
  8
0
 10
-43.1544
 20
-54.2657
 11
-42.9645
 21
-54.6208
  0
LINE
  8
0
 10
-42.9645
 20
-54.6208
 11
-42.7518
 21
-54.9628
  0
LINE
  8
0
 10
-42.7518
 20
-54.9628
 11
-42.5173
 21
-55.2902
  0
LINE
  8
0
 10
-42.5173
 20
-55.2902
 11
-42.2618
 21
-55.6015
  0
LINE
  8
0
 10
-42.2618
 20
-55.6015
 11
-41.9865
 21
-55.8954
  0
LINE
  8
0
 10
-41.9865
 20
-55.8954
 11
-41.6925
 21
-56.1707
  0
LINE
  8
0
 10
-41.6925
 20
-56.1707
 11
-41.3812
 21
-56.4262
  0
LINE
  8
0
 10
-41.3812
 20
-56.4262
 11
-41.0539
 21
-56.6608
  0
LINE
  8
0
 10
-41.0539
 20
-56.6608
 11
-40.7119
 21
-56.8735
  0
LINE
  8
0
 10
-40.7119
 20
-56.8735
 11
-40.3567
 21
-57.0633
  0
LINE
  8
0
 10
-40.3567
 20
-57.0633
 11
-39.9899
 21
-57.2295
  0
LINE
  8
0
 10
-39.9899
 20
-57.2295
 11
-39.613
 21
-57.3714
  0
LINE
  8
0
 10
-39.613
 20
-57.3714
 11
-39.2276
 21
-57.4883
  0
LINE
  8
0
 10
-39.2276
 20
-57.4883
 11
-38.8354
 21
-57.5797
  0
LINE
  8
0
 10
-38.8354
 20
-57.5797
 11
-38.438
 21
-57.6454
  0
LINE
  8
0
 10
-38.438
 20
-57.6454
 11
-38.0372
 21
-57.6848
  0
LINE
  8
0
 10
-38.0372
 20
-57.6848
 11
-37.6347
 21
-57.698
  0
LINE
  8
0
 10
-37.6347
 20
-57.698
 11
-21.5
 21
-57.698
  0
LINE
  8
0
 10
-21.5
 20
-57.698
 11
-21.5
 21
-63.059
  0
LINE
  8
0
 10
-21.5
 20
-63.059
 11
-16.5
 21
-63.059
  0
LINE
  8
0
 10
-16.5
 20
-63.059
 11
-16.5
 21
-57.698
  0
LINE
  8
0
 10
-19.3597
 20
-38.3972
 11
-19.7179
 21
-38.3619
  0
LINE
  8
0
 10
-19.7179
 20
-38.3619
 11
-20.073
 21
-38.3033
  0
LINE
  8
0
 10
-20.073
 20
-38.3033
 11
-20.4235
 21
-38.2216
  0
LINE
  8
0
 10
-20.4235
 20
-38.2216
 11
-20.7679
 21
-38.1171
  0
LINE
  8
0
 10
-20.7679
 20
-38.1171
 11
-21.1048
 21
-37.9903
  0
LINE
  8
0
 10
-21.1048
 20
-37.9903
 11
-21.4326
 21
-37.8418
  0
LINE
  8
0
 10
-21.4326
 20
-37.8418
 11
-21.75
 21
-37.6721
  0
LINE
  8
0
 10
-21.75
 20
-37.6721
 11
-22.0556
 21
-37.482
  0
LINE
  8
0
 10
-22.0556
 20
-37.482
 11
-22.3482
 21
-37.2724
  0
LINE
  8
0
 10
-22.3482
 20
-37.2724
 11
-22.6264
 21
-37.0441
  0
LINE
  8
0
 10
-22.6264
 20
-37.0441
 11
-22.8891
 21
-36.798
  0
LINE
  8
0
 10
-22.8891
 20
-36.798
 11
-23.1351
 21
-36.5354
  0
LINE
  8
0
 10
-23.1351
 20
-36.5354
 11
-23.3634
 21
-36.2571
  0
LINE
  8
0
 10
-23.3634
 20
-36.2571
 11
-23.5731
 21
-35.9646
  0
LINE
  8
0
 10
-23.5731
 20
-35.9646
 11
-23.7631
 21
-35.659
  0
LINE
  8
0
 10
-23.7631
 20
-35.659
 11
-23.9328
 21
-35.3416
  0
LINE
  8
0
 10
-23.9328
 20
-35.3416
 11
-24.0813
 21
-35.0137
  0
LINE
  8
0
 10
-24.0813
 20
-35.0137
 11
-24.2081
 21
-34.6769
  0
LINE
  8
0
 10
-24.2081
 20
-34.6769
 11
-24.3126
 21
-34.3325
  0
LINE
  8
0
 10
-24.3126
 20
-34.3325
 11
-24.3943
 21
-33.9819
  0
LINE
  8
0
 10
-24.3943
 20
-33.9819
 11
-24.4529
 21
-33.6268
  0
LINE
  8
0
 10
-24.4529
 20
-33.6268
 11
-24.4882
 21
-33.2687
  0
LINE
  8
0
 10
-24.4882
 20
-33.2687
 11
-24.5
 21
-32.909
  0
LINE
  8
0
 10
-24.5
 20
-32.909
 11
-24.4882
 21
-32.5492
  0
LINE
  8
0
 10
-24.4882
 20
-32.5492
 11
-24.4529
 21
-32.1911
  0
LINE
  8
0
 10
-24.4529
 20
-32.1911
 11
-24.3943
 21
-31.836
  0
LINE
  8
0
 10
-24.3943
 20
-31.836
 11
-24.3126
 21
-31.4855
  0
LINE
  8
0
 10
-24.3126
 20
-31.4855
 11
-24.2081
 21
-31.141
  0
LINE
  8
0
 10
-24.2081
 20
-31.141
 11
-24.0813
 21
-30.8042
  0
LINE
  8
0
 10
-24.0813
 20
-30.8042
 11
-23.9328
 21
-30.4764
  0
LINE
  8
0
 10
-23.9328
 20
-30.4764
 11
-23.7631
 21
-30.159
  0
LINE
  8
0
 10
-23.7631
 20
-30.159
 11
-23.5731
 21
-29.8533
  0
LINE
  8
0
 10
-23.5731
 20
-29.8533
 11
-23.3634
 21
-29.5608
  0
LINE
  8
0
 10
-23.3634
 20
-29.5608
 11
-23.1351
 21
-29.2826
  0
LINE
  8
0
 10
-23.1351
 20
-29.2826
 11
-22.8891
 21
-29.0199
  0
LINE
  8
0
 10
-22.8891
 20
-29.0199
 11
-22.6264
 21
-28.7738
  0
LINE
  8
0
 10
-22.6264
 20
-28.7738
 11
-22.3482
 21
-28.5455
  0
LINE
  8
0
 10
-22.3482
 20
-28.5455
 11
-22.0556
 21
-28.3359
  0
LINE
  8
0
 10
-22.0556
 20
-28.3359
 11
-21.75
 21
-28.1458
  0
LINE
  8
0
 10
-21.75
 20
-28.1458
 11
-21.4326
 21
-27.9762
  0
LINE
  8
0
 10
-21.4326
 20
-27.9762
 11
-21.1048
 21
-27.8276
  0
LINE
  8
0
 10
-21.1048
 20
-27.8276
 11
-20.7679
 21
-27.7008
  0
LINE
  8
0
 10
-20.7679
 20
-27.7008
 11
-20.4235
 21
-27.5964
  0
LINE
  8
0
 10
-20.4235
 20
-27.5964
 11
-20.073
 21
-27.5146
  0
LINE
  8
0
 10
-20.073
 20
-27.5146
 11
-19.7179
 21
-27.456
  0
LINE
  8
0
 10
-19.7179
 20
-27.456
 11
-19.3597
 21
-27.4207
  0
LINE
  8
0
 10
-19.3597
 20
-27.4207
 11
-19
 21
-27.409
  0
LINE
  8
0
 10
-19
 20
-27.409
 11
-18.6403
 21
-27.4207
  0
LINE
  8
0
 10
-18.6403
 20
-27.4207
 11
-18.2821
 21
-27.456
  0
LINE
  8
0
 10
-18.2821
 20
-27.456
 11
-17.927
 21
-27.5146
  0
LINE
  8
0
 10
-17.927
 20
-27.5146
 11
-17.5765
 21
-27.5964
  0
LINE
  8
0
 10
-17.5765
 20
-27.5964
 11
-17.2321
 21
-27.7008
  0
LINE
  8
0
 10
-17.2321
 20
-27.7008
 11
-16.8952
 21
-27.8276
  0
LINE
  8
0
 10
-16.8952
 20
-27.8276
 11
-16.5674
 21
-27.9762
  0
LINE
  8
0
 10
-16.5674
 20
-27.9762
 11
-16.25
 21
-28.1458
  0
LINE
  8
0
 10
-16.25
 20
-28.1458
 11
-15.9444
 21
-28.3359
  0
LINE
  8
0
 10
-15.9444
 20
-28.3359
 11
-15.6518
 21
-28.5455
  0
LINE
  8
0
 10
-15.6518
 20
-28.5455
 11
-15.3736
 21
-28.7738
  0
LINE
  8
0
 10
-15.3736
 20
-28.7738
 11
-15.1109
 21
-29.0199
  0
LINE
  8
0
 10
-15.1109
 20
-29.0199
 11
-14.8649
 21
-29.2826
  0
LINE
  8
0
 10
-14.8649
 20
-29.2826
 11
-14.6366
 21
-29.5608
  0
LINE
  8
0
 10
-14.6366
 20
-29.5608
 11
-14.4269
 21
-29.8533
  0
LINE
  8
0
 10
-14.4269
 20
-29.8533
 11
-14.2368
 21
-30.159
  0
LINE
  8
0
 10
-14.2368
 20
-30.159
 11
-14.0672
 21
-30.4764
  0
LINE
  8
0
 10
-14.0672
 20
-30.4764
 11
-13.9187
 21
-30.8042
  0
LINE
  8
0
 10
-13.9187
 20
-30.8042
 11
-13.7919
 21
-31.141
  0
LINE
  8
0
 10
-13.7919
 20
-31.141
 11
-13.6874
 21
-31.4855
  0
LINE
  8
0
 10
-13.6874
 20
-31.4855
 11
-13.6057
 21
-31.836
  0
LINE
  8
0
 10
-13.6057
 20
-31.836
 11
-13.547
 21
-32.1911
  0
LINE
  8
0
 10
-13.547
 20
-32.1911
 11
-13.5118
 21
-32.5492
  0
LINE
  8
0
 10
-13.5118
 20
-32.5492
 11
-13.5
 21
-32.909
  0
LINE
  8
0
 10
-13.5
 20
-32.909
 11
-13.5118
 21
-33.2687
  0
LINE
  8
0
 10
-13.5118
 20
-33.2687
 11
-13.547
 21
-33.6268
  0
LINE
  8
0
 10
-13.547
 20
-33.6268
 11
-13.6057
 21
-33.9819
  0
LINE
  8
0
 10
-13.6057
 20
-33.9819
 11
-13.6874
 21
-34.3325
  0
LINE
  8
0
 10
-13.6874
 20
-34.3325
 11
-13.7919
 21
-34.6769
  0
LINE
  8
0
 10
-13.7919
 20
-34.6769
 11
-13.9187
 21
-35.0137
  0
LINE
  8
0
 10
-13.9187
 20
-35.0137
 11
-14.0672
 21
-35.3416
  0
LINE
  8
0
 10
-14.0672
 20
-35.3416
 11
-14.2368
 21
-35.659
  0
LINE
  8
0
 10
-14.2368
 20
-35.659
 11
-14.4269
 21
-35.9646
  0
LINE
  8
0
 10
-14.4269
 20
-35.9646
 11
-14.6366
 21
-36.2571
  0
LINE
  8
0
 10
-14.6366
 20
-36.2571
 11
-14.8649
 21
-36.5354
  0
LINE
  8
0
 10
-14.8649
 20
-36.5354
 11
-15.1109
 21
-36.798
  0
LINE
  8
0
 10
-15.1109
 20
-36.798
 11
-15.3736
 21
-37.0441
  0
LINE
  8
0
 10
-15.3736
 20
-37.0441
 11
-15.6518
 21
-37.2724
  0
LINE
  8
0
 10
-15.6518
 20
-37.2724
 11
-15.9444
 21
-37.482
  0
LINE
  8
0
 10
-15.9444
 20
-37.482
 11
-16.25
 21
-37.6721
  0
LINE
  8
0
 10
-16.25
 20
-37.6721
 11
-16.5674
 21
-37.8418
  0
LINE
  8
0
 10
-16.5674
 20
-37.8418
 11
-16.8952
 21
-37.9903
  0
LINE
  8
0
 10
-16.8952
 20
-37.9903
 11
-17.2321
 21
-38.1171
  0
LINE
  8
0
 10
-17.2321
 20
-38.1171
 11
-17.5765
 21
-38.2216
  0
LINE
  8
0
 10
-17.5765
 20
-38.2216
 11
-17.927
 21
-38.3033
  0
LINE
  8
0
 10
-17.927
 20
-38.3033
 11
-18.2821
 21
-38.3619
  0
LINE
  8
0
 10
-18.2821
 20
-38.3619
 11
-18.6403
 21
-38.3972
  0
LINE
  8
0
 10
-18.6403
 20
-38.3972
 11
-19
 21
-38.409
  0
LINE
  8
0
 10
-19
 20
-38.409
 11
-19.3597
 21
-38.3972
  0
ENDSEC
  0
SECTION
  2
OBJECTS
  0
DICTIONARY
  0
ENDSEC
  0
EOF
