<?xml version="1.0" standalone="no"?>
<!DOCTYPE svg PUBLIC "-//W3C//DTD SVG 1.1//EN" "http://www.w3.org/Graphics/SVG/1.1/DTD/svg11.dtd">
<svg width="119" height="128" viewBox="-50 -64 119 128" xmlns="http://www.w3.org/2000/svg" version="1.1">
<title>OpenSCAD Model</title>
<path d="
M -0.319061,-52.727 L -0.940964,-53.2374 L -1.59491,-53.706 L -2.27811,-54.1309 L -2.98764,-54.5101 L -3.72044,-54.8421
 L -4.47339,-55.1255 L -5.24327,-55.3591 L -6.02676,-55.5418 L -6.82054,-55.6728 L -7.62119,-55.7517 L -8.42528,-55.778
 L -16.5,-55.778 L -16.5,-63.059 L -21.5,-63.059 L -21.5,-55.778 L -29.5747,-55.778 L -30.3788,-55.7517
 L -31.1794,-55.6728 L -31.9732,-55.5418 L -32.7567,-55.3591 L -33.5266,-55.1255 L -34.2795,-54.8421 L -35.0124,-54.5101
 L -35.7219,-54.1309 L -36.4051,-53.706 L -37.059,-53.2374 L -37.6809,-52.727 L -38.2681,-52.1771 L -38.8181,-51.5899
 L -39.3285,-50.968 L -39.7971,-50.314 L -40.2219,-49.6308 L -40.6012,-48.9213 L -40.9332,-48.1885 L -41.2166,-47.4356
 L -41.4501,-46.6657 L -41.6328,-45.8822 L -41.7639,-45.0884 L -41.8427,-44.2878 L -41.869,-43.4837 L -41.869,-35.409
 L -49.15,-35.409 L -49.15,-30.409 L -41.869,-30.409 L -41.869,-22.3342 L -41.8427,-21.5302 L -41.7639,-20.7295
 L -41.6328,-19.9357 L -41.4501,-19.1522 L -41.2166,-18.3824 L -40.9332,-17.6294 L -40.6012,-16.8966 L -40.2219,-16.1871
 L -39.7971,-15.5039 L -39.3285,-14.8499 L -38.8181,-14.228 L -38.2681,-13.6408 L -37.6809,-13.0909 L -37.059,-12.5805
 L -36.4051,-12.1119 L -35.7219,-11.687 L -35.0124,-11.3078 L -34.2795,-10.9758 L -33.5266,-10.6924 L -32.7567,-10.4588
 L -31.9732,-10.2762 L -31.1794,-10.1451 L -30.3788,-10.0662 L -29.5747,-10.0399 L -21.5,-10.0399 L -21.5,-2.75896
 L -16.5,-2.75896 L -16.5,-10.0399 L -8.42528,-10.0399 L -7.62119,-10.0662 L -6.82054,-10.1451 L -6.02676,-10.2762
 L -5.24327,-10.4588 L -4.47339,-10.6924 L -3.72044,-10.9758 L -2.98764,-11.3078 L -2.27811,-11.687 L -1.59491,-12.1119
 L -0.940964,-12.5805 L -0.319061,-13.0909 L 0.268112,-13.6408 L 0.818069,-14.228 L 1.32845,-14.8499 L 1.79707,-15.5039
 L 2.22191,-16.1871 L 2.60115,-16.8966 L 2.93318,-17.6294 L 3.21657,-18.3824 L 3.45012,-19.1522 L 3.6328,-19.9357
 L 3.76385,-20.7295 L 3.84271,-21.5302 L 3.86903,-22.3342 L 3.86903,-30.409 L 11.15,-30.409 L 11.15,-35.409
 L 3.86903,-35.409 L 3.86903,-43.4837 L 3.84271,-44.2878 L 3.76385,-45.0884 L 3.6328,-45.8822 L 3.45012,-46.6657
 L 3.21657,-47.4356 L 2.93318,-48.1885 L 2.60115,-48.9213 L 2.22191,-49.6308 L 1.79707,-50.314 L 1.32845,-50.968
 L 0.818069,-51.5899 L 0.268112,-52.1771 z
M -14.6366,-36.2571 L -14.4269,-35.9646 L -14.2368,-35.659 L -14.0672,-35.3416 L -13.9187,-35.0137 L -13.7919,-34.6769
 L -13.6874,-34.3325 L -13.6057,-33.9819 L -13.547,-33.6268 L -13.5118,-33.2687 L -13.5,-32.909 L -13.5118,-32.5492
 L -13.547,-32.1911 L -13.6057,-31.836 L -13.6874,-31.4855 L -13.7919,-31.141 L -13.9187,-30.8042 L -14.0672,-30.4764
 L -14.2368,-30.159 L -14.4269,-29.8533 L -14.6366,-29.5608 L -14.8649,-29.2826 L -15.1109,-29.0199 L -15.3736,-28.7738
 L -15.6518,-28.5455 L -15.9444,-28.3359 L -16.25,-28.1458 L -16.5674,-27.9762 L -16.8952,-27.8276 L -17.2321,-27.7008
 L -17.5765,-27.5964 L -17.927,-27.5146 L -18.2821,-27.456 L -18.6403,-27.4207 L -19,-27.409 L -19.3597,-27.4207
 L -19.7179,-27.456 L -20.073,-27.5146 L -20.4235,-27.5964 L -20.7679,-27.7008 L -21.1048,-27.8276 L -21.4326,-27.9762
 L -21.75,-28.1458 L -22.0556,-28.3359 L -22.3482,-28.5455 L -22.6264,-28.7738 L -22.8891,-29.0199 L -23.1351,-29.2826
 L -23.3634,-29.5608 L -23.5731,-29.8533 L -23.7631,-30.159 L -23.9328,-30.4764 L -24.0813,-30.8042 L -24.2081,-31.141
 L -24.3126,-31.4855 L -24.3943,-31.836 L -24.4529,-32.1911 L -24.4882,-32.5492 L -24.5,-32.909 L -24.4882,-33.2687
 L -24.4529,-33.6268 L -24.3943,-33.9819 L -24.3126,-34.3325 L -24.2081,-34.6769 L -24.0813,-35.0137 L -23.9328,-35.3416
 L -23.7631,-35.659 L -23.5731,-35.9646 L -23.3634,-36.2571 L -23.1351,-36.5354 L -22.8891,-36.798 L -22.6264,-37.0441
 L -22.3482,-37.2724 L -22.0556,-37.482 L -21.75,-37.6721 L -21.4326,-37.8418 L -21.1048,-37.9903 L -20.7679,-38.1171
 L -20.4235,-38.2216 L -20.073,-38.3033 L -19.7179,-38.3619 L -19.3597,-38.3972 L -19,-38.409 L -18.6403,-38.3972
 L -18.2821,-38.3619 L -17.927,-38.3033 L -17.5765,-38.2216 L -17.2321,-38.1171 L -16.8952,-37.9903 L -16.5674,-37.8418
 L -16.25,-37.6721 L -15.9444,-37.482 L -15.6518,-37.2724 L -15.3736,-37.0441 L -15.1109,-36.798 L -14.8649,-36.5354
 z
M 40.5,20.949 L 41.7204,20.9096 L 42.9209,20.7913 L 44.1111,20.5948 L 45.2859,20.3209 L 46.4402,19.9707
 L 47.5692,19.5458 L 48.668,19.048 L 49.7319,18.4793 L 50.7563,17.8423 L 51.7368,17.1396 L 52.6693,16.3744
 L 53.5497,15.5497 L 54.3744,14.6693 L 55.1396,13.7368 L 55.8423,12.7563 L 56.4793,11.7319 L 57.048,10.668
 L 57.5458,9.56923 L 57.9707,8.44023 L 58.3209,7.28586 L 58.5948,6.11107 L 58.7913,4.92087 L 58.9096,3.72037
 L 58.949,2.5 L 68.15,2.5 L 68.15,-2.5 L 58.949,-2.5 L 58.9096,-3.72037 L 58.7913,-4.92087
 L 58.5948,-6.11107 L 58.3209,-7.28586 L 57.9707,-8.44023 L 57.5458,-9.56923 L 57.048,-10.668 L 56.4793,-11.7319
 L 55.8423,-12.7563 L 55.1396,-13.7368 L 54.3744,-14.6693 L 53.5497,-15.5497 L 52.6693,-16.3744 L 51.7368,-17.1396
 L 50.7563,-17.8423 L 49.7319,-18.4793 L 48.668,-19.048 L 47.5692,-19.5458 L 46.4402,-19.9707 L 45.2859,-20.3209
 L 44.1111,-20.5948 L 42.9209,-20.7913 L 41.7204,-20.9096 L 40.5,-20.949 L 40.5,-30.15 L 35.5,-30.15
 L 35.5,-20.949 L 34.2796,-20.9096 L 33.0791,-20.7913 L 31.8889,-20.5948 L 30.7141,-20.3209 L 29.5598,-19.9707
 L 28.4308,-19.5458 L 27.332,-19.048 L 26.2681,-18.4793 L 25.2437,-17.8423 L 24.2632,-17.1396 L 23.3307,-16.3744
 L 22.4502,-15.5497 L 21.6256,-14.6693 L 20.8604,-13.7368 L 20.1577,-12.7563 L 19.5207,-11.7319 L 18.952,-10.668
 L 18.4542,-9.56923 L 18.0293,-8.44023 L 17.6791,-7.28586 L 17.4052,-6.11107 L 17.2087,-4.92087 L 17.0904,-3.72037
 L 17.0509,-2.5 L 7.84999,-2.5 L 7.84999,2.5 L 17.0509,2.5 L 17.0904,3.72037 L 17.2087,4.92087
 L 17.4052,6.11107 L 17.6791,7.28586 L 18.0293,8.44023 L 18.4542,9.56923 L 18.952,10.668 L 19.5207,11.7319
 L 20.1577,12.7563 L 20.8604,13.7368 L 21.6256,14.6693 L 22.4502,15.5497 L 23.3307,16.3744 L 24.2632,17.1396
 L 25.2437,17.8423 L 26.2681,18.4793 L 27.332,19.048 L 28.4308,19.5458 L 29.5598,19.9707 L 30.7141,20.3209
 L 31.8889,20.5948 L 33.0791,20.7913 L 34.2796,20.9096 L 35.5,20.949 L 35.5,30.15 L 40.5,30.15
 z
M 37.6403,5.48822 L 37.2821,5.45294 L 36.927,5.39432 L 36.5765,5.31259 L 36.2321,5.20811 L 35.8952,5.08133
 L 35.5674,4.9328 L 35.25,4.76314 L 34.9444,4.57307 L 34.6518,4.36343 L 34.3736,4.13512 L 34.1109,3.88908
 L 33.8649,3.62639 L 33.6366,3.34818 L 33.4269,3.05563 L 33.2369,2.75 L 33.0672,2.43259 L 32.9187,2.10475
 L 32.7919,1.76791 L 32.6874,1.42349 L 32.6057,1.07298 L 32.547,0.71788 L 32.5118,0.359711 L 32.5,-0
 L 32.5118,-0.359711 L 32.547,-0.71788 L 32.6057,-1.07298 L 32.6874,-1.42349 L 32.7919,-1.76791 L 32.9187,-2.10475
 L 33.0672,-2.43259 L 33.2369,-2.75 L 33.4269,-3.05563 L 33.6366,-3.34818 L 33.8649,-3.62639 L 34.1109,-3.88908
 L 34.3736,-4.13512 L 34.6518,-4.36343 L 34.9444,-4.57307 L 35.25,-4.76314 L 35.5674,-4.9328 L 35.8952,-5.08133
 L 36.2321,-5.20811 L 36.5765,-5.31259 L 36.927,-5.39432 L 37.2821,-5.45294 L 37.6403,-5.48822 L 38,-5.5
 L 38.3597,-5.48822 L 38.7179,-5.45294 L 39.073,-5.39432 L 39.4235,-5.31259 L 39.7679,-5.20811 L 40.1048,-5.08133
 L 40.4326,-4.9328 L 40.75,-4.76314 L 41.0556,-4.57307 L 41.3482,-4.36343 L 41.6264,-4.13512 L 41.8891,-3.88908
 L 42.1351,-3.62639 L 42.3634,-3.34818 L 42.5731,-3.05563 L 42.7631,-2.75 L 42.9328,-2.43259 L 43.0813,-2.10475
 L 43.2081,-1.76791 L 43.3126,-1.42349 L 43.3943,-1.07298 L 43.4529,-0.71788 L 43.4882,-0.359711 L 43.5,-0
 L 43.4882,0.359711 L 43.4529,0.71788 L 43.3943,1.07298 L 43.3126,1.42349 L 43.2081,1.76791 L 43.0813,2.10475
 L 42.9328,2.43259 L 42.7631,2.75 L 42.5731,3.05563 L 42.3634,3.34818 L 42.1351,3.62639 L 41.8891,3.88908
 L 41.6264,4.13512 L 41.3482,4.36343 L 41.0556,4.57307 L 40.75,4.76314 L 40.4326,4.9328 L 40.1048,5.08133
 L 39.7679,5.20811 L 39.4235,5.31259 L 39.073,5.39432 L 38.7179,5.45294 L 38.3597,5.48822 L 38,5.5
 z
M -16.5,57.698 L -0.365265,57.698 L 0.0372314,57.6848 L 0.438019,57.6454 L 0.835358,57.5797 L 1.22757,57.4883
 L 1.61296,57.3714 L 1.98987,57.2295 L 2.3567,57.0633 L 2.71187,56.8735 L 3.05386,56.6608 L 3.38123,56.4262
 L 3.69254,56.1707 L 3.98648,55.8954 L 4.26178,55.6015 L 4.51726,55.2902 L 4.75185,54.9628 L 4.96451,54.6208
 L 5.15436,54.2657 L 5.32056,53.8988 L 5.46242,53.5219 L 5.57933,53.1365 L 5.67078,52.7443 L 5.73639,52.347
 L 5.77585,51.9462 L 5.78903,51.5437 L 5.78903,35.409 L 11.15,35.409 L 11.15,30.409 L 5.78903,30.409
 L 5.78903,14.2742 L 5.77585,13.8717 L 5.73639,13.4709 L 5.67078,13.0736 L 5.57933,12.6814 L 5.46242,12.296
 L 5.32056,11.9191 L 5.15436,11.5522 L 4.96451,11.1971 L 4.75185,10.8551 L 4.51726,10.5277 L 4.26178,10.2164
 L 3.98648,9.92247 L 3.69254,9.64717 L 3.38123,9.39169 L 3.05386,9.1571 L 2.71187,8.94444 L 2.3567,8.75459
 L 1.98987,8.58839 L 1.61296,8.44653 L 1.22757,8.32962 L 0.835358,8.23817 L 0.438019,8.17256 L 0.0372314,8.1331
 L -0.365265,8.11992 L -16.5,8.11992 L -16.5,2.75896 L -21.5,2.75896 L -21.5,8.11992 L -37.6347,8.11992
 L -38.0372,8.1331 L -38.438,8.17256 L -38.8354,8.23817 L -39.2276,8.32962 L -39.613,8.44653 L -39.9899,8.58839
 L -40.3567,8.75459 L -40.7119,8.94444 L -41.0539,9.1571 L -41.3812,9.39169 L -41.6925,9.64717 L -41.9865,9.92247
 L -42.2618,10.2164 L -42.5173,10.5277 L -42.7518,10.8551 L -42.9645,11.1971 L -43.1544,11.5522 L -43.3206,11.9191
 L -43.4624,12.296 L -43.5793,12.6814 L -43.6708,13.0736 L -43.7364,13.4709 L -43.7759,13.8717 L -43.789,14.2742
 L -43.789,30.409 L -49.15,30.409 L -49.15,35.409 L -43.789,35.409 L -43.789,51.5437 L -43.7759,51.9462
 L -43.7364,52.347 L -43.6708,52.7443 L -43.5793,53.1365 L -43.4624,53.5219 L -43.3206,53.8988 L -43.1544,54.2657
 L -42.9645,54.6208 L -42.7518,54.9628 L -42.5173,55.2902 L -42.2618,55.6015 L -41.9865,55.8954 L -41.6925,56.1707
 L -41.3812,56.4262 L -41.0539,56.6608 L -40.7119,56.8735 L -40.3567,57.0633 L -39.9899,57.2295 L -39.613,57.3714
 L -39.2276,57.4883 L -38.8354,57.5797 L -38.438,57.6454 L -38.0372,57.6848 L -37.6347,57.698 L -21.5,57.698
 L -21.5,63.059 L -16.5,63.059 z
M -19.3597,38.3972 L -19.7179,38.3619 L -20.073,38.3033 L -20.4235,38.2216 L -20.7679,38.1171 L -21.1048,37.9903
 L -21.4326,37.8418 L -21.75,37.6721 L -22.0556,37.482 L -22.3482,37.2724 L -22.6264,37.0441 L -22.8891,36.798
 L -23.1351,36.5354 L -23.3634,36.2571 L -23.5731,35.9646 L -23.7631,35.659 L -23.9328,35.3416 L -24.0813,35.0137
 L -24.2081,34.6769 L -24.3126,34.3325 L -24.3943,33.9819 L -24.4529,33.6268 L -24.4882,33.2687 L -24.5,32.909
 L -24.4882,32.5492 L -24.4529,32.1911 L -24.3943,31.836 L -24.3126,31.4855 L -24.2081,31.141 L -24.0813,30.8042
 L -23.9328,30.4764 L -23.7631,30.159 L -23.5731,29.8533 L -23.3634,29.5608 L -23.1351,29.2826 L -22.8891,29.0199
 L -22.6264,28.7738 L -22.3482,28.5455 L -22.0556,28.3359 L -21.75,28.1458 L -21.4326,27.9762 L -21.1048,27.8276
 L -20.7679,27.7008 L -20.4235,27.5964 L -20.073,27.5146 L -19.7179,27.456 L -19.3597,27.4207 L -19,27.409
 L -18.6403,27.4207 L -18.2821,27.456 L -17.927,27.5146 L -17.5765,27.5964 L -17.2321,27.7008 L -16.8952,27.8276
 L -16.5674,27.9762 L -16.25,28.1458 L -15.9444,28.3359 L -15.6518,28.5455 L -15.3736,28.7738 L -15.1109,29.0199
 L -14.8649,29.2826 L -14.6366,29.5608 L -14.4269,29.8533 L -14.2368,30.159 L -14.0672,30.4764 L -13.9187,30.8042
 L -13.7919,31.141 L -13.6874,31.4855 L -13.6057,31.836 L -13.547,32.1911 L -13.5118,32.5492 L -13.5,32.909
 L -13.5118,33.2687 L -13.547,33.6268 L -13.6057,33.9819 L -13.6874,34.3325 L -13.7919,34.6769 L -13.9187,35.0137
 L -14.0672,35.3416 L -14.2368,35.659 L -14.4269,35.9646 L -14.6366,36.2571 L -14.8649,36.5354 L -15.1109,36.798
 L -15.3736,37.0441 L -15.6518,37.2724 L -15.9444,37.482 L -16.25,37.6721 L -16.5674,37.8418 L -16.8952,37.9903
 L -17.2321,38.1171 L -17.5765,38.2216 L -17.927,38.3033 L -18.2821,38.3619 L -18.6403,38.3972 L -19,38.409
 z
" stroke="black" fill="lightgray" stroke-width="0.5"/></svg>
